<?xml version="1.0" encoding="UTF-8"?>
<svg width="38px" height="48px" viewBox="0 0 38 48" version="1.1" xmlns="http://www.w3.org/2000/svg" xmlns:xlink="http://www.w3.org/1999/xlink">
    <title>Slice</title>
    <g id="Page-1" stroke="none" stroke-width="1" fill="none" fill-rule="evenodd">
        <g id="dtmf_answer" transform="translate(5.000000, 5.000000)" fill="#FFFFFF">
            <path d="M13.73,30.87 C12.3426945,30.87 11.091992,31.7056927 10.5610932,32.9873958 C10.0301944,34.269099 10.3236506,35.7444031 11.3046237,36.7253763 C12.2855969,37.7063494 13.760901,37.9998056 15.0426042,37.4689068 C16.3243073,36.938008 17.16,35.6873055 17.16,34.3 C17.1545078,32.4079429 15.6220571,30.8754922 13.73,30.87 L13.73,30.87 Z M3.43,-3.55271368e-15 C1.53697487,0.00551904718 0.00632978346,1.54361763 0.00999985956,3.43664724 C0.0136831553,5.32967684 1.55029133,6.86181813 3.44332362,6.85998546 C5.33635591,6.85814949 6.87,5.32303318 6.87,3.43 C6.86448849,1.53404687 5.32596114,-3.55271368e-15 3.43,-3.55271368e-15 L3.43,-3.55271368e-15 Z M3.43,10.29 C1.53697487,10.295519 0.00632978346,11.8336176 0.00999985956,13.7266472 C0.0136831553,15.6196768 1.55029133,17.1518181 3.44332362,17.1499855 C5.33635591,17.1481495 6.87,15.6130332 6.87,13.72 C6.85902986,11.8263265 5.32369742,10.2954572 3.43,10.29 L3.43,10.29 Z M3.43,20.59 C1.53697487,20.595519 0.00632978346,22.1336176 0.00999985956,24.0266472 C0.0136831553,25.9196768 1.55029133,27.4518181 3.44332362,27.4499855 C5.33635591,27.4481495 6.87,25.9130332 6.87,24.02 C6.86448849,22.1240469 5.32596114,20.59 3.43,20.59 L3.43,20.59 Z M24.03,6.87 C25.9230251,6.86448095 27.4536702,5.32638237 27.4500001,3.43335276 C27.4463168,1.54032316 25.9097087,0.00818186637 24.0166764,0.0100145422 C22.1236441,0.0118505088 20.59,1.54696682 20.59,3.44 C20.6009701,5.33367351 22.1363026,6.86454277 24.03,6.87 Z M13.73,20.59 C12.3426945,20.59 11.091992,21.4256927 10.5610932,22.7073958 C10.0301944,23.989099 10.3236506,25.4644031 11.3046237,26.4453763 C12.2855969,27.4263494 13.760901,27.7198056 15.0426042,27.1889068 C16.3243073,26.658008 17.16,25.4073055 17.16,24.02 C17.1545078,22.1279429 15.6220571,20.5954922 13.73,20.59 Z M24.03,20.59 C22.1356633,20.59 20.6,22.1256633 20.6,24.02 C20.6,25.9143367 22.1356633,27.45 24.03,27.45 C25.9243367,27.45 27.46,25.9143367 27.46,24.02 C27.4545078,22.1279429 25.9220571,20.5954922 24.03,20.59 Z M24.03,10.29 C22.1356633,10.29 20.6,11.8256633 20.6,13.72 C20.6,15.6143367 22.1356633,17.15 24.03,17.15 C25.9243367,17.15 27.46,15.6143367 27.46,13.72 C27.4490761,11.8302066 25.9197934,10.3009239 24.03,10.29 L24.03,10.29 Z M13.73,10.29 C12.3426945,10.29 11.091992,11.1256927 10.5610932,12.4073958 C10.0301944,13.689099 10.3236506,15.1644031 11.3046237,16.1453763 C12.2855969,17.1263494 13.760901,17.4198056 15.0426042,16.8889068 C16.3243073,16.358008 17.16,15.1073055 17.16,13.72 C17.1545078,11.8279429 15.6220571,10.2954922 13.73,10.29 L13.73,10.29 Z M13.73,-3.55271368e-15 C12.3426945,-3.55271368e-15 11.091992,0.83569267 10.5610932,2.11739583 C10.0301944,3.39909898 10.3236506,4.87440313 11.3046237,5.85537626 C12.2855969,6.83634939 13.760901,7.12980563 15.0426042,6.5989068 C16.3243073,6.06800797 17.16,4.8173055 17.16,3.43 C17.1545078,1.53794293 15.6220571,0.00549221776 13.73,-3.55271368e-15 L13.73,-3.55271368e-15 Z" id="icon_communication_dialpad_24px"></path>
        </g>
    </g>
</svg>