<?xml version="1.0" encoding="UTF-8"?>
<svg width="58px" height="54px" viewBox="0 0 58 54" version="1.1" xmlns="http://www.w3.org/2000/svg" xmlns:xlink="http://www.w3.org/1999/xlink">
    <title>voice_call</title>
    <g id="Page-1" stroke="none" stroke-width="1" fill="none" fill-rule="evenodd">
        <g id="voice_call" fill="#FFFFFF">
            <path d="M50.74,25.09 L39.51,18.8 L39.51,23.38 L22.75,23.38 L22.75,26.81 L39.51,26.81 L39.51,31.38 L50.74,25.09 Z M17.9,12.81 C17.4734691,14.2532852 17.2052242,15.738691 17.1,17.24 L14.45,18.47 C14.4942926,16.2522298 14.8305177,14.049955 15.45,11.92 L17.9,12.81 Z M26.7,37.92 C27.9266193,38.7987667 29.2401635,39.5493634 30.62,40.16 L29.75,42.56 C27.7208306,41.6584039 25.8126327,40.5060943 24.07,39.13 L26.7,37.92 L26.7,37.92 Z M20.59,10.15 L14.96,8.15 C14.0792722,7.82591433 13.101919,8.27219433 12.77,9.15 C10.1268023,16.4021911 10.4742698,24.4075653 13.7358956,31.4034618 C16.9975213,38.3993583 22.9058651,43.8121417 30.16,46.45 C31.040499,46.7682691 32.0138354,46.3238233 32.35,45.45 L34.4,39.83 C34.7240857,38.9492722 34.2778057,37.971919 33.4,37.64 C31.4527391,36.931725 29.6301072,35.9191517 28,34.64 C27.8504997,34.5236977 27.6810688,34.4355936 27.5,34.38 C27.0762616,34.2108244 26.6037384,34.2108244 26.18,34.38 L21.36,36.63 C17.6436129,32.6409461 15.2813647,27.5804855 14.61,22.17 L19.44,19.92 C20.0296534,19.6487303 20.416387,19.0686299 20.44,18.42 C20.5076,16.3574022 20.9025242,14.3186483 21.61,12.38 C21.7772533,11.9494539 21.7632209,11.4695588 21.5710961,11.0495211 C21.3789712,10.6294834 21.0250962,10.305032 20.59,10.15 Z" id="Shape"></path>
        </g>
    </g>
</svg>