<?xml version="1.0" encoding="UTF-8"?>
<svg width="53px" height="51px" viewBox="0 0 53 51" version="1.1" xmlns="http://www.w3.org/2000/svg" xmlns:xlink="http://www.w3.org/1999/xlink">
    <title>Slice</title>
    <g id="Page-1" stroke="none" stroke-width="1" fill="none" fill-rule="evenodd">
        <g id="incoming" transform="translate(5.000000, 6.000000)" fill="#FFFFFF">
            <path d="M31.3,17.09 L20.06,10.8 L20.06,15.34 L0.98,15.34 L0.98,18.77 L20.06,18.77 L20.06,23.35 L31.3,17.09 Z M34.04,4.81 L36.47,3.92 C37.084786,6.05098908 37.4209165,8.25264413 37.47,10.47 L34.83,9.24 C34.723379,7.7396368 34.4585766,6.2547323 34.04,4.81 Z M25.21,29.92 L27.84,31.13 C26.1009023,32.505986 24.1960236,33.6583201 22.17,34.56 L21.3,32.16 C22.6777674,31.551502 23.9882102,30.8007624 25.21,29.92 Z M30.3,4.34 C31.0106,6.2881605 31.4055721,8.33728903 31.47,10.41 C31.4981342,11.0571619 31.8834407,11.6351215 32.47,11.91 L37.3,14.16 C36.6241668,19.5672139 34.2664744,24.6254086 30.56,28.62 L25.73,26.34 C25.3108669,26.1649993 24.8391331,26.1649993 24.42,26.34 C24.2494794,26.3988411 24.0904561,26.4868114 23.95,26.6 C22.3148931,27.8771331 20.4893063,28.8894732 18.54,29.6 C18.1165794,29.7572817 17.7731591,30.0766049 17.5855425,30.4874852 C17.397926,30.8983654 17.3815395,31.3670192 17.54,31.79 L19.54,37.4 C19.871919,38.2778057 20.8492722,38.7240857 21.73,38.4 C36.8324424,32.9019883 44.6214687,16.2048228 39.13,1.1 C38.7895979,0.224834281 37.8131975,-0.21898411 36.93,0.1 L31.3,2.15 C30.4300894,2.49031218 29.9874277,3.45974127 30.3,4.34 Z" id="Shape"></path>
        </g>
    </g>
</svg>